<svg width="71" height="71" viewBox="0 0 71 71" fill="none" xmlns="http://www.w3.org/2000/svg">
<path d="M53.0959 28.3637C55.0004 26.3589 55.0004 23.1363 55.0004 16.6842C55.0004 10.2321 55.0004 7.00947 53.0959 5.00474M53.0959 28.3637C51.1914 30.3684 48.1299 30.3684 42.0003 30.3684H29.0002C22.8707 30.3684 19.8091 30.3684 17.9046 28.3637M53.0959 5.00474C51.1914 3 48.1299 3 42.0003 3H29.0002C22.8707 3 19.8091 3 17.9046 5.00474M17.9046 5.00474C16.0001 7.00947 16.0001 10.2321 16.0001 16.6842C16.0001 23.1363 16.0001 26.3589 17.9046 28.3637M38.7503 16.6842C38.7503 17.5915 38.4079 18.4617 37.7984 19.1033C37.1889 19.7448 36.3622 20.1053 35.5003 20.1053C34.6383 20.1053 33.8116 19.7448 33.2022 19.1033C32.5927 18.4617 32.2502 17.5915 32.2502 16.6842C32.2502 15.7769 32.5927 14.9067 33.2022 14.2652C33.8116 13.6236 34.6383 13.2632 35.5003 13.2632C36.3622 13.2632 37.1889 13.6236 37.7984 14.2652C38.4079 14.9067 38.7503 15.7769 38.7503 16.6842Z" stroke="#33CCA1" stroke-width="6"/>
<path d="M55.0004 13.2632C52.4145 13.2632 49.9346 12.1819 48.1061 10.2571C46.2776 8.33243 45.2504 5.72196 45.2504 3M55.0004 20.1053C52.4145 20.1053 49.9346 21.1866 48.1061 23.1113C46.2776 25.036 45.2504 27.6465 45.2504 30.3684M16.0001 13.2632C18.586 13.2632 21.066 12.1819 22.8945 10.2571C24.723 8.33243 25.7502 5.72196 25.7502 3M16.0001 20.1053C18.586 20.1053 21.066 21.1866 22.8945 23.1113C24.723 25.036 25.7502 27.6465 25.7502 30.3684M12.7501 62.4853H20.0952C23.3777 62.4853 26.7025 62.8479 29.8972 63.5389C35.601 64.7724 41.4698 64.9091 47.2199 63.9426C50.0409 63.4637 52.8099 62.7282 55.3189 61.4555C57.5809 60.3026 60.3532 58.6845 62.2155 56.8679C64.0745 55.0547 66.0115 52.0887 67.383 49.7692C68.566 47.7782 67.994 45.3389 66.1285 43.8576C65.0802 43.055 63.8173 42.6226 62.521 42.6226C61.2247 42.6226 59.9617 43.055 58.9135 43.8576L53.0407 48.5274C50.7656 50.3405 48.2794 52.0066 45.3186 52.5026C44.9611 52.5608 44.5873 52.6155 44.1973 52.6634M44.1973 52.6634C44.0783 52.678 43.9591 52.6916 43.8398 52.7045M44.1973 52.6634C44.7175 52.5153 45.1945 52.2332 45.5851 51.8424C46.0748 51.3964 46.4748 50.8517 46.7613 50.2404C47.0478 49.629 47.215 48.9635 47.2532 48.2831C47.2914 47.6026 47.1997 46.921 46.9835 46.2784C46.7673 45.6359 46.4311 45.0454 45.9946 44.5418C45.5711 44.0469 45.0778 43.6235 44.5321 43.2863C35.4418 37.5766 21.2944 41.9247 12.7501 48.305M44.1973 52.6634C44.0799 52.6903 43.9601 52.7041 43.8398 52.7045M43.8398 52.7045C41.8798 52.9118 39.9052 52.9164 37.9443 52.7182" stroke="#33CCA1" stroke-width="6" stroke-linecap="round"/>
<path d="M12.7501 45.7632C12.7501 42.9291 10.5674 40.6316 7.87504 40.6316C5.18263 40.6316 3 42.9291 3 45.7632V62.8684C3 65.7025 5.18263 68 7.87504 68C10.5674 68 12.7501 65.7025 12.7501 62.8684V45.7632Z" stroke="#33CCA1" stroke-width="6"/>
</svg>
