<svg width="71" height="71" viewBox="0 0 71 71" fill="none" xmlns="http://www.w3.org/2000/svg">
<path d="M35.5 21.0567V68M3 24.6677C3 23.71 3.38046 22.7915 4.05767 22.1143C4.73488 21.4371 5.65338 21.0567 6.61111 21.0567H64.3889C65.3466 21.0567 66.2651 21.4371 66.9423 22.1143C67.6195 22.7915 68 23.71 68 24.6677V31.8898C68 32.8475 67.6195 33.766 66.9423 34.4431C66.2651 35.1203 65.3466 35.5008 64.3889 35.5008H6.61111C5.65338 35.5008 4.73488 35.1203 4.05767 34.4431C3.38046 33.766 3 32.8475 3 31.8898V24.6677Z" stroke="#33CCA1" stroke-width="6" stroke-linecap="round" stroke-linejoin="round"/>
<path d="M60.7777 35.5008V60.778C60.7777 62.6934 60.0168 64.5303 58.6624 65.8847C57.308 67.2391 55.471 68 53.5555 68H17.4444C15.5289 68 13.6919 67.2391 12.3375 65.8847C10.9831 64.5303 10.2222 62.6934 10.2222 60.778V35.5008M19.2499 21.0567C16.8556 21.0567 14.5594 20.1056 12.8663 18.4126C11.1733 16.7196 10.2222 14.4234 10.2222 12.0291C10.2222 9.63488 11.1733 7.33869 12.8663 5.64569C14.5594 3.95269 16.8556 3.00158 19.2499 3.00158C22.7335 2.94089 26.1473 4.63109 29.0459 7.85176C31.9446 11.0724 34.1937 15.6741 35.4999 21.0567C36.8062 15.6741 39.0553 11.0724 41.954 7.85176C44.8526 4.63109 48.2664 2.94089 51.7499 3.00158C54.1443 3.00158 56.4405 3.95269 58.1335 5.64569C59.8266 7.33869 60.7777 9.63488 60.7777 12.0291C60.7777 14.4234 59.8266 16.7196 58.1335 18.4126C56.4405 20.1056 54.1443 21.0567 51.7499 21.0567" stroke="#33CCA1" stroke-width="6" stroke-linecap="round" stroke-linejoin="round"/>
</svg>
