<svg width="65" height="65" viewBox="0 0 65 65" fill="none" xmlns="http://www.w3.org/2000/svg">
<g opacity="0.65">
<path d="M32.8333 36.5997C29.9602 36.5997 27.2047 37.7416 25.173 39.7741C23.1414 41.8065 22 44.5632 22 47.4375C22 50.3119 23.1414 53.0686 25.173 55.101C27.2047 57.1335 29.9602 58.2754 32.8333 58.2754C35.7065 58.2754 38.462 57.1335 40.4937 55.101C42.5253 53.0686 43.6667 50.3119 43.6667 47.4375C43.6667 44.5632 42.5253 41.8065 40.4937 39.7741C38.462 37.7416 35.7065 36.5997 32.8333 36.5997ZM28.1905 47.4375C28.1905 46.2057 28.6796 45.0243 29.5503 44.1532C30.421 43.2821 31.602 42.7928 32.8333 42.7928C34.0647 42.7928 35.2456 43.2821 36.1163 44.1532C36.987 45.0243 37.4762 46.2057 37.4762 47.4375C37.4762 48.6694 36.987 49.8508 36.1163 50.7219C35.2456 51.593 34.0647 52.0823 32.8333 52.0823C31.602 52.0823 30.421 51.593 29.5503 50.7219C28.6796 49.8508 28.1905 48.6694 28.1905 47.4375Z" fill="#33CCA1"/>
<path d="M49.6043 13.575L39.7645 0L3.58429 28.4415L1.57857 28.4202V28.4506H0V65H65V28.4506H62.0224L56.0981 11.3973L49.6043 13.575ZM55.4821 28.4506H24.4431L47.5614 20.6961L52.2724 19.2128L55.4821 28.4506ZM43.4881 15.6279L19.6238 23.6322L38.5233 8.77489L43.4881 15.6279ZM6.19048 53.3316V40.1129C7.49634 39.6576 8.68248 38.9212 9.66239 37.9575C10.6423 36.9937 11.3913 35.8269 11.8548 34.5422H53.1452C53.6085 35.8274 54.3574 36.9947 55.3373 37.9589C56.3172 38.9232 57.5034 39.6601 58.8095 40.116V53.3347C57.5034 53.7905 56.3172 54.5274 55.3373 55.4917C54.3574 56.4559 53.6085 57.6232 53.1452 58.9084H11.861C11.3972 57.6221 10.6475 56.454 9.66649 55.4891C8.68547 54.5243 7.49791 53.7872 6.19048 53.3316Z" fill="#33CCA1"/>
</g>
</svg>
