<svg width="160" height="55" viewBox="0 0 160 55" fill="none" xmlns="http://www.w3.org/2000/svg">
<path d="M26.0397 50.0383V19.4708H31.8263V36.5886L39.9275 28.6411H46.8714L37.6128 39.034L46.2927 50.0383H39.3488L32.9836 41.4794H31.8263V50.0383H26.0397Z" fill="#0A0A0A" stroke="#0A0A0A"/>
<path d="M49.1859 50.6496V19.4708H54.9725V50.6496H49.1859Z" fill="#0A0A0A" stroke="#0A0A0A"/>
<path d="M77.9334 39.0341C77.9334 44.5374 73.7436 48.7611 68.8603 48.7611C63.977 48.7611 59.7871 44.5374 59.7871 39.0341C59.7871 33.5308 63.977 29.3071 68.8603 29.3071C73.7436 29.3071 77.9334 33.5308 77.9334 39.0341Z" stroke="#0A0A0A" stroke-width="5"/>
<path d="M83.9054 50.0386V28.03H98.9505C103.58 29.0082 105.123 33.736 105.316 35.9776V50.0386H98.9505V35.9776C98.4876 33.5322 96.0572 32.9208 94.8999 32.9208C91.1965 32.9208 89.8849 34.9587 89.692 35.9776V50.0386H83.9054Z" fill="#0A0A0A" stroke="#0A0A0A"/>
<path d="M0.578658 45.7592V28.03H6.36524V42.7024C6.36524 44.1696 7.13678 44.944 7.52256 45.1478C7.90833 45.3956 9.1428 45.8912 10.9945 45.8912C13.3091 45.5078 15.0451 42.7905 15.6238 41.4797V28.03H21.4104V50.0386H15.6238V46.3705C15.1608 47.8377 12.3447 49.4272 10.9945 50.0386H9.83719H6.36524C4.05061 50.0386 1.54309 47.1856 0.578658 45.7592Z" fill="#0A0A0A"/>
<path d="M0.578658 28.03V45.7592C1.54309 47.1856 4.05061 50.0386 6.36524 50.0386C8.67987 50.0386 9.6443 50.0386 9.83719 50.0386H10.9945C12.3447 49.4273 15.1608 47.8377 15.6238 46.3705V50.0386H21.4103V28.03H15.6238V41.4797C15.0451 42.7905 13.3091 45.5078 10.9945 45.8912C9.1428 45.8912 7.90833 45.3956 7.52256 45.1478C7.13678 44.944 6.36524 44.1696 6.36524 42.7024C6.36524 41.2352 6.36524 32.3095 6.36524 28.03H0" stroke="#0A0A0A"/>
<path d="M142.497 16.8959C144.579 16.3881 146.483 18.3446 146.052 20.5506L140.49 49.0258C140.035 51.3586 137.333 52.2466 135.658 50.6139L113.412 28.9185C111.686 27.2353 112.418 24.2293 114.688 23.6757L142.497 16.8959Z" fill="#33CCA1"/>
</svg>
