<svg width="21" height="20" viewBox="0 0 21 20" fill="none" xmlns="http://www.w3.org/2000/svg">
<path fill-rule="evenodd" clip-rule="evenodd" d="M6.63434 13.6838C10.6784 17.5345 14.4259 17.9561 15.5261 17.9952C16.8555 18.0413 18.2123 17.0077 18.7992 15.9491C17.8631 14.9036 16.6441 14.0924 15.3084 13.2131C14.5216 13.9622 13.5519 15.3543 12.2582 14.8555C11.523 14.5741 9.70764 13.7779 8.12156 12.2667C6.53443 10.7564 5.69931 9.02786 5.40166 8.32882C4.87787 7.09599 6.34405 6.16961 7.13184 5.4195C6.20837 4.12758 5.37116 2.93681 4.27521 2.09055C3.1477 2.65138 2.05595 3.93329 2.10539 5.21619C2.14641 6.26375 2.58921 9.83205 6.63434 13.6838ZM15.4482 19.9962C13.9337 19.9431 9.64138 19.3792 5.14608 15.0989C0.651831 10.8195 0.05968 6.73345 0.00288397 5.2903C-0.0812583 3.09104 1.68783 0.954863 3.73144 0.120623C3.97753 0.0194399 4.24702 -0.0190837 4.51347 0.00883272C4.77991 0.0367492 5.03416 0.130147 5.25126 0.27986C6.94251 1.45461 8.10894 3.23425 9.11128 4.62832C9.3198 4.9182 9.41532 5.26837 9.38132 5.61824C9.34733 5.9681 9.18595 6.29564 8.92512 6.54417L7.49891 7.90319C7.83022 8.59922 8.50441 9.799 9.60877 10.8506C10.7131 11.9021 11.9732 12.5441 12.7052 12.8596L14.1304 11.5015C14.3924 11.2527 14.7378 11.0992 15.1064 11.0679C15.4751 11.0366 15.8436 11.1295 16.1477 11.3303C17.6412 12.3157 19.3956 13.4104 20.6745 14.9697C20.8445 15.1779 20.9527 15.4258 20.9876 15.6874C21.0226 15.949 20.9831 16.2148 20.8733 16.4569C19.993 18.4128 17.7653 20.0773 15.4482 19.9962Z" fill="#33CCA1"/>
</svg>
