<svg width="19" height="24" viewBox="0 0 19 24" fill="none" xmlns="http://www.w3.org/2000/svg">
<path fill-rule="evenodd" clip-rule="evenodd" d="M0 9.92714C0 4.45845 4.23971 0 9.5 0C14.7603 0 19 4.45845 19 9.92714C19 12.5672 18.2682 15.4025 16.9741 17.8517C15.6821 20.2975 13.7951 22.4229 11.4326 23.5581C10.8276 23.8492 10.1679 24 9.5 24C8.83211 24 8.17237 23.8492 7.56743 23.5581C5.20491 22.4229 3.31794 20.2986 2.02594 17.8517C0.731772 15.4025 0 12.5672 0 9.92714ZM9.5 1.67443C5.16583 1.67443 1.62857 5.35483 1.62857 9.92714C1.62857 12.268 2.28326 14.8299 3.45691 17.0524C4.63166 19.2772 6.2928 21.0978 8.25577 22.0411C8.64502 22.2286 9.06961 22.3258 9.49946 22.3258C9.92931 22.3258 10.3539 22.2286 10.7431 22.0411C12.7072 21.0978 14.3683 19.2772 15.5431 17.0524C16.7167 14.831 17.3714 12.268 17.3714 9.92714C17.3714 5.35483 13.8342 1.67443 9.5 1.67443ZM9.5 7.25587C9.1792 7.25587 8.86154 7.32083 8.56516 7.44705C8.26878 7.57328 7.99948 7.75828 7.77264 7.99151C7.5458 8.22474 7.36586 8.50162 7.24309 8.80635C7.12033 9.11107 7.05714 9.43768 7.05714 9.76751C7.05714 10.0973 7.12033 10.424 7.24309 10.7287C7.36586 11.0334 7.5458 11.3103 7.77264 11.5435C7.99948 11.7767 8.26878 11.9617 8.56516 12.088C8.86154 12.2142 9.1792 12.2792 9.5 12.2792C10.1479 12.2792 10.7692 12.0145 11.2274 11.5435C11.6855 11.0725 11.9429 10.4336 11.9429 9.76751C11.9429 9.10138 11.6855 8.46254 11.2274 7.99151C10.7692 7.52049 10.1479 7.25587 9.5 7.25587ZM5.42857 9.76751C5.42857 8.6573 5.85752 7.59255 6.62107 6.80751C7.38461 6.02247 8.42019 5.58144 9.5 5.58144C10.5798 5.58144 11.6154 6.02247 12.3789 6.80751C13.1425 7.59255 13.5714 8.6573 13.5714 9.76751C13.5714 10.8777 13.1425 11.9425 12.3789 12.7275C11.6154 13.5126 10.5798 13.9536 9.5 13.9536C8.42019 13.9536 7.38461 13.5126 6.62107 12.7275C5.85752 11.9425 5.42857 10.8777 5.42857 9.76751Z" fill="#33CCA1"/>
</svg>
