<svg width="31" height="32" viewBox="0 0 31 32" fill="none" xmlns="http://www.w3.org/2000/svg">
<path d="M9.11493 0.685059H21.8852C26.7501 0.685059 30.7028 4.62771 30.7028 9.48019V22.218C30.7028 24.5506 29.7738 26.7877 28.1202 28.4371C26.4665 30.0865 24.2238 31.0131 21.8852 31.0131H9.11493C4.25007 31.0131 0.297363 27.0705 0.297363 22.218V9.48019C0.297363 7.14758 1.22635 4.9105 2.87997 3.26109C4.53358 1.61169 6.77637 0.685059 9.11493 0.685059ZM8.81088 3.71786C7.35935 3.71786 5.96728 4.29301 4.9409 5.31678C3.91452 6.34055 3.3379 7.72908 3.3379 9.17691V22.5213C3.3379 25.5389 5.78554 27.9803 8.81088 27.9803H22.1893C23.6408 27.9803 25.0329 27.4052 26.0592 26.3814C27.0856 25.3576 27.6622 23.9691 27.6622 22.5213V9.17691C27.6622 6.15927 25.2146 3.71786 22.1893 3.71786H8.81088ZM23.4815 5.99247C23.9855 5.99247 24.4688 6.19217 24.8252 6.54765C25.1816 6.90312 25.3818 7.38525 25.3818 7.88797C25.3818 8.39069 25.1816 8.87282 24.8252 9.22829C24.4688 9.58377 23.9855 9.78347 23.4815 9.78347C22.9775 9.78347 22.4941 9.58377 22.1377 9.22829C21.7814 8.87282 21.5811 8.39069 21.5811 7.88797C21.5811 7.38525 21.7814 6.90312 22.1377 6.54765C22.4941 6.19217 22.9775 5.99247 23.4815 5.99247ZM15.5001 8.26707C17.5161 8.26707 19.4495 9.06589 20.875 10.4878C22.3006 11.9097 23.1014 13.8382 23.1014 15.8491C23.1014 17.86 22.3006 19.7885 20.875 21.2104C19.4495 22.6323 17.5161 23.4311 15.5001 23.4311C13.4841 23.4311 11.5506 22.6323 10.1251 21.2104C8.69957 19.7885 7.89871 17.86 7.89871 15.8491C7.89871 13.8382 8.69957 11.9097 10.1251 10.4878C11.5506 9.06589 13.4841 8.26707 15.5001 8.26707ZM15.5001 11.2999C14.2905 11.2999 13.1304 11.7792 12.2751 12.6323C11.4198 13.4855 10.9393 14.6426 10.9393 15.8491C10.9393 17.0556 11.4198 18.2127 12.2751 19.0659C13.1304 19.919 14.2905 20.3983 15.5001 20.3983C16.7097 20.3983 17.8697 19.919 18.725 19.0659C19.5804 18.2127 20.0609 17.0556 20.0609 15.8491C20.0609 14.6426 19.5804 13.4855 18.725 12.6323C17.8697 11.7792 16.7097 11.2999 15.5001 11.2999Z" fill="black"/>
</svg>
