<svg width="65" height="65" viewBox="0 0 65 65" fill="none" xmlns="http://www.w3.org/2000/svg">
<path d="M32.5 65C14.5503 65 0 50.4497 0 32.5C0 14.5503 14.5503 0 32.5 0C50.4497 0 65 14.5503 65 32.5C65 50.4497 50.4497 65 32.5 65ZM32.5 58.5C39.3956 58.5 46.0088 55.7607 50.8848 50.8848C55.7607 46.0088 58.5 39.3956 58.5 32.5C58.5 25.6044 55.7607 18.9912 50.8848 14.1152C46.0088 9.23928 39.3956 6.5 32.5 6.5C25.6044 6.5 18.9912 9.23928 14.1152 14.1152C9.23928 18.9912 6.5 25.6044 6.5 32.5C6.5 39.3956 9.23928 46.0088 14.1152 50.8848C18.9912 55.7607 25.6044 58.5 32.5 58.5ZM35.75 32.5H48.75V39H29.25V16.25H35.75V32.5Z" fill="#33CCA1"/>
</svg>
